<?xml version="1.0" standalone="no"?>
<!DOCTYPE svg PUBLIC "-//W3C//DTD SVG 20010904//EN"
 "http://www.w3.org/TR/2001/REC-SVG-20010904/DTD/svg10.dtd">
<svg version="1.0" xmlns="http://www.w3.org/2000/svg"
 width="1320.000000pt" height="1320.000000pt" viewBox="0 0 1320.000000 1320.000000"
 preserveAspectRatio="xMidYMid meet">
<metadata>
Created by potrace 1.11, written by Peter Selinger 2001-2013
</metadata>
<g transform="translate(0.000000,1320.000000) scale(0.100000,-0.100000)"
fill="#000000" stroke="none">
<path d="M7015 13190 c-22 -5 -53 -10 -70 -13 -41 -6 -229 -69 -235 -78 -3 -4
-18 -13 -34 -19 -36 -13 -214 -121 -286 -173 -70 -51 -162 -119 -177 -132 -6
-5 -33 -28 -60 -50 -67 -56 -165 -148 -242 -229 -111 -117 -113 -119 -186
-211 -22 -27 -48 -59 -57 -69 -10 -11 -18 -23 -18 -27 0 -5 -10 -17 -22 -29
-12 -11 -18 -20 -14 -20 4 0 2 -6 -4 -12 -44 -52 -66 -86 -150 -225 -103 -171
-313 -580 -304 -594 3 -5 1 -9 -3 -9 -5 0 -17 -24 -28 -52 -10 -29 -22 -59
-28 -65 -5 -7 -6 -13 -3 -13 4 0 0 -12 -8 -27 -8 -16 -29 -68 -46 -118 -17
-49 -33 -97 -36 -105 -3 -8 -6 -17 -6 -20 0 -3 -9 -30 -20 -60 -23 -66 -84
-275 -102 -350 -2 -8 -9 -35 -16 -60 -7 -25 -14 -56 -17 -70 -2 -14 -10 -46
-18 -73 -8 -26 -14 -49 -15 -52 0 -3 0 -6 -1 -7 -3 -11 -9 -47 -11 -65 -1 -13
-6 -23 -11 -23 -4 0 -5 -4 -2 -10 3 -5 1 -27 -4 -47 -6 -21 -13 -54 -16 -73
-3 -19 -10 -54 -16 -78 -5 -23 -12 -59 -15 -80 -8 -45 -12 -67 -14 -67 -1 0
-3 -13 -5 -30 -1 -16 -10 -79 -20 -140 -9 -60 -18 -123 -20 -138 -2 -15 -7
-45 -10 -66 -3 -21 -8 -58 -10 -82 -9 -87 -16 -145 -20 -179 -12 -98 -34 -331
-40 -445 -3 -44 -7 -102 -10 -130 -17 -191 -24 -761 -11 -970 8 -127 15 -218
21 -275 2 -25 7 -76 10 -115 3 -38 7 -79 9 -90 2 -12 7 -48 11 -80 7 -63 12
-96 19 -131 2 -12 7 -39 10 -60 28 -180 70 -387 113 -559 3 -11 6 -27 7 -35 1
-8 11 -42 20 -75 10 -33 20 -69 22 -80 5 -26 40 -142 72 -240 14 -44 27 -83
28 -87 1 -5 2 -9 4 -10 1 -2 3 -11 5 -21 2 -10 15 -47 29 -83 14 -35 26 -70
26 -77 0 -6 6 -24 14 -39 14 -26 40 -101 38 -105 -1 -2 7 -19 18 -38 11 -20
20 -44 20 -55 0 -11 5 -20 10 -20 6 0 10 -6 10 -12 0 -7 10 -33 21 -58 11 -25
19 -45 17 -46 -2 0 3 -8 11 -17 7 -10 11 -17 8 -17 -3 0 44 -98 104 -217 98
-197 130 -257 197 -375 12 -21 32 -55 43 -75 12 -21 30 -49 40 -62 10 -13 17
-27 14 -31 -3 -4 2 -10 10 -14 8 -3 15 -12 15 -19 0 -8 11 -27 25 -43 14 -16
25 -34 25 -41 0 -6 3 -13 8 -15 4 -1 23 -28 42 -58 19 -30 37 -57 40 -60 9 -9
70 -100 70 -106 0 -3 9 -14 20 -26 11 -12 32 -40 47 -62 15 -23 30 -43 33 -46
3 -3 34 -43 70 -90 35 -47 72 -92 82 -101 10 -9 18 -20 18 -24 0 -4 35 -47 78
-97 42 -49 85 -100 95 -112 68 -80 300 -318 443 -454 18 -17 16 -21 -53 -73
-32 -24 -60 -46 -63 -50 -3 -3 -54 -42 -115 -88 -111 -83 -156 -118 -178 -136
-7 -6 -34 -26 -62 -45 -27 -19 -52 -37 -55 -40 -18 -18 -161 -120 -169 -120
-5 0 -11 -4 -13 -8 -1 -4 -43 -37 -93 -72 -49 -36 -99 -73 -109 -82 -11 -10
-28 -20 -38 -24 -10 -3 -18 -10 -18 -15 0 -5 -7 -9 -15 -9 -7 0 -19 -8 -24
-17 -6 -10 -11 -13 -11 -8 0 6 -3 6 -8 -1 -4 -5 -43 -35 -87 -66 -45 -30 -104
-71 -133 -92 -28 -20 -56 -36 -62 -36 -5 0 -10 -3 -10 -7 0 -5 -28 -26 -63
-48 -34 -22 -68 -45 -75 -52 -6 -6 -21 -15 -32 -18 -11 -3 -20 -10 -20 -14 0
-5 -13 -14 -30 -21 -16 -7 -30 -16 -30 -20 0 -4 -11 -12 -25 -18 -14 -7 -31
-16 -38 -22 -7 -6 -39 -27 -72 -48 -33 -21 -91 -59 -130 -84 -86 -56 -293
-186 -320 -202 -11 -6 -31 -19 -44 -28 -13 -10 -27 -15 -32 -12 -5 3 -9 1 -9
-4 0 -8 -123 -88 -155 -101 -5 -2 -29 -17 -52 -32 -23 -16 -44 -29 -46 -29 -3
0 -46 -25 -95 -55 -50 -30 -95 -55 -101 -55 -6 0 -11 -4 -11 -8 0 -5 -22 -19
-50 -32 -27 -13 -50 -27 -50 -32 0 -4 -5 -8 -11 -8 -6 0 -25 -10 -42 -22 -18
-13 -34 -22 -37 -22 -5 2 -57 -27 -143 -78 -26 -15 -49 -28 -51 -28 -3 0 -47
-25 -100 -55 -52 -30 -97 -55 -100 -55 -3 0 -29 -14 -58 -31 -29 -18 -59 -32
-65 -32 -7 0 -13 -4 -13 -8 0 -4 -18 -15 -40 -25 -22 -10 -40 -21 -40 -26 0
-4 -6 -8 -13 -8 -8 0 -47 -18 -88 -40 -41 -22 -117 -61 -169 -87 -52 -27 -96
-51 -98 -55 -2 -5 -12 -8 -22 -8 -10 0 -20 -3 -22 -7 -4 -11 -101 -59 -110
-55 -4 1 -8 -2 -8 -8 0 -5 -7 -10 -16 -10 -8 0 -22 -7 -31 -15 -8 -8 -19 -13
-24 -10 -5 4 -9 3 -9 -2 0 -4 -27 -19 -60 -33 -33 -14 -60 -28 -60 -32 0 -5
-5 -8 -12 -8 -6 0 -57 -22 -112 -49 -269 -131 -550 -261 -566 -261 -5 0 -12
-5 -15 -11 -4 -5 8 -4 27 4 18 8 38 15 43 17 6 1 21 7 35 12 14 6 30 11 35 12
6 1 20 7 32 14 12 7 30 13 40 15 10 2 32 10 48 17 17 7 44 18 60 26 17 7 91
36 165 64 74 29 149 58 165 65 88 39 125 55 130 55 2 0 29 11 59 25 30 14 57
25 60 25 3 0 30 11 60 25 80 37 110 48 119 47 4 -1 7 3 7 9 0 5 4 8 9 4 5 -3
12 -1 16 5 3 5 14 10 24 10 9 0 22 5 29 12 6 6 17 13 24 14 7 1 47 18 88 37
41 19 98 45 125 57 28 12 93 42 145 67 52 24 117 54 145 66 27 11 53 25 56 30
3 5 10 9 15 9 5 0 52 21 104 46 52 25 97 46 100 47 6 1 263 130 340 170 30 16
61 30 69 31 8 2 17 6 20 11 3 4 47 28 96 53 50 24 92 47 95 50 3 3 46 25 95
50 50 25 92 47 95 50 3 3 28 17 55 32 28 14 77 41 110 59 33 18 80 43 105 57
25 13 86 48 137 78 51 30 97 54 102 54 6 0 11 4 11 9 0 5 9 13 20 16 23 7 262
145 270 156 3 3 15 9 27 13 13 4 29 13 36 20 6 7 24 19 39 27 15 8 75 43 135
79 59 36 113 67 118 69 6 2 12 7 15 11 3 4 41 28 85 55 44 26 99 61 122 76 23
16 44 29 48 29 8 0 69 43 73 53 2 4 8 7 14 7 5 0 29 14 53 30 24 17 48 30 54
30 6 0 11 5 11 10 0 6 8 13 18 17 20 7 105 63 112 74 3 4 12 9 20 11 8 2 20 8
27 15 12 10 281 193 321 218 9 6 22 17 29 25 7 8 13 11 13 5 0 -6 3 -6 8 0 4
6 60 48 124 94 120 84 123 85 163 49 44 -39 76 -66 101 -84 14 -10 38 -29 52
-42 15 -13 43 -35 62 -50 19 -15 37 -29 40 -32 19 -21 363 -270 474 -343 10
-6 35 -23 55 -37 20 -14 48 -31 64 -39 15 -8 27 -18 27 -23 0 -4 4 -8 9 -8 8
0 220 -127 246 -147 6 -5 21 -14 35 -20 14 -7 49 -26 78 -43 124 -72 168 -95
362 -192 113 -57 208 -107 211 -111 3 -5 10 -9 15 -8 5 0 50 -19 99 -43 81
-39 117 -55 235 -102 19 -8 44 -15 55 -17 11 -1 25 -5 30 -9 6 -3 37 -14 70
-23 33 -9 74 -20 90 -25 17 -5 59 -16 95 -25 36 -9 71 -18 78 -20 7 -2 14 -5
17 -5 3 -1 35 -10 72 -21 38 -11 84 -22 103 -25 19 -3 38 -8 42 -10 4 -2 26
-8 50 -13 24 -5 86 -19 138 -31 80 -18 235 -49 330 -66 14 -2 34 -6 45 -9 11
-2 43 -7 70 -10 28 -4 61 -9 75 -11 46 -9 84 -13 132 -16 27 -2 48 -5 48 -8 0
-4 10 -6 23 -7 44 -2 152 -12 152 -14 0 -1 16 -3 35 -5 19 -1 62 -5 95 -8 58
-5 147 -11 288 -21 39 -2 67 0 67 6 0 5 -3 8 -7 7 -5 -1 -28 5 -53 12 -25 8
-47 14 -50 15 -3 0 -23 7 -45 14 -61 19 -65 20 -73 22 -4 0 -15 5 -25 11 -10
5 -28 11 -40 13 -12 3 -31 9 -42 14 -11 6 -42 17 -70 25 -55 16 -180 61 -350
126 -60 23 -114 43 -120 44 -11 2 -80 32 -107 47 -10 5 -22 9 -28 9 -10 0
-131 53 -164 71 -10 6 -26 12 -35 14 -9 2 -54 21 -101 43 -47 22 -110 51 -140
65 -106 48 -286 137 -410 203 -147 78 -243 127 -250 129 -3 0 -21 8 -40 17
-19 8 -55 24 -80 34 -25 10 -47 21 -50 24 -3 3 -12 6 -20 8 -17 4 -362 173
-370 182 -3 3 -27 16 -55 30 -27 14 -52 27 -55 30 -3 3 -33 20 -68 38 -35 18
-116 65 -180 104 -64 39 -126 76 -137 82 -20 11 -71 44 -90 58 -5 4 -68 46
-140 94 -143 95 -198 135 -203 147 -2 4 -8 7 -13 7 -8 0 -168 119 -197 147 -7
7 -16 13 -20 13 -4 0 -20 12 -37 28 -16 15 -54 45 -82 67 -29 21 -53 44 -53
50 1 5 35 35 77 65 41 30 83 62 92 70 21 18 78 63 146 114 77 58 117 90 130
103 7 7 15 9 19 6 3 -4 6 1 6 10 0 10 6 17 14 17 8 0 16 3 18 8 2 4 23 23 48
42 25 19 50 39 56 45 6 5 29 24 50 42 144 117 242 199 264 219 14 12 57 49 95
81 90 75 111 93 144 123 16 14 43 38 62 54 19 15 67 58 108 95 40 36 88 80
107 96 18 17 66 60 106 97 40 36 87 78 103 93 205 183 546 523 745 744 36 40
86 94 111 122 26 27 45 49 43 49 -2 0 9 13 24 28 42 44 102 113 102 117 0 3
12 17 28 33 15 16 45 50 67 77 22 26 50 58 63 71 12 13 22 28 22 34 0 6 4 9 9
6 4 -3 13 6 19 19 7 14 16 25 22 25 5 0 10 6 10 14 0 8 4 16 9 18 8 3 93 102
156 183 17 21 47 56 67 79 21 23 38 47 38 54 0 6 3 12 8 12 4 0 41 44 82 97
41 53 80 101 85 107 6 6 33 41 60 79 27 37 52 67 57 67 4 0 8 5 8 11 0 6 20
38 44 72 39 55 176 274 176 281 0 2 18 36 40 76 22 40 40 79 40 86 0 7 4 14 9
16 15 6 155 328 143 328 -4 0 -2 4 4 8 6 4 32 70 58 147 26 77 50 147 53 155
3 8 7 22 9 30 1 8 16 67 33 130 18 63 33 124 36 135 2 11 4 20 5 20 1 0 3 20
6 44 2 24 7 48 11 54 4 6 8 25 9 41 1 17 5 45 8 61 3 17 8 55 12 85 3 30 8 64
10 75 19 91 26 527 11 660 -7 65 -10 87 -21 155 -4 21 -33 163 -41 195 -12 52
-18 73 -26 90 -6 12 -11 27 -13 35 -4 20 -16 51 -27 72 -5 10 -9 25 -9 33 0 8
-4 15 -10 15 -5 0 -9 3 -9 8 1 4 0 9 -1 12 -1 3 -3 12 -5 20 -4 23 -113 208
-158 270 -74 99 -206 222 -307 285 -110 69 -312 148 -375 146 -2 0 -19 5 -37
10 -38 11 -177 22 -260 21 -69 0 -215 -15 -268 -26 -157 -33 -242 -55 -290
-73 -8 -4 -17 -7 -20 -8 -60 -18 -87 -27 -150 -53 -41 -16 -119 -51 -173 -76
-55 -25 -102 -46 -107 -46 -4 0 -13 -6 -19 -14 -7 -8 -26 -18 -42 -21 -16 -4
-29 -10 -29 -14 0 -4 -12 -13 -27 -20 -36 -16 -157 -94 -161 -103 -2 -5 -8 -8
-13 -8 -17 0 -270 -202 -277 -221 -2 -5 -8 -9 -13 -9 -9 0 -8 14 6 100 7 43
15 104 20 150 2 19 6 58 9 85 14 112 17 142 21 195 2 30 4 55 5 55 1 0 10 136
14 210 1 34 5 65 8 71 4 5 3 16 -1 23 -5 7 -5 25 -2 40 4 14 4 40 1 57 -4 18
-4 38 1 45 4 7 3 21 -2 31 -7 12 -6 18 1 18 6 0 9 4 6 9 -9 14 -11 135 -3 149
5 6 4 12 0 12 -5 0 -9 28 -10 63 0 34 -4 96 -7 137 -4 41 -8 95 -10 120 -5 52
-14 124 -21 160 -2 14 -7 42 -10 63 -12 82 -17 115 -32 182 -9 39 -18 85 -20
103 -3 17 -9 32 -15 32 -5 0 -7 4 -4 9 3 5 -1 27 -9 50 -8 23 -14 44 -14 46 3
32 -117 329 -181 450 -46 86 -118 198 -132 203 -4 2 -8 8 -8 14 0 36 -338 368
-376 368 -2 0 -14 8 -25 18 -29 28 -251 140 -309 156 -18 6 -88 29 -100 33
-19 8 -17 7 -60 16 -19 4 -46 10 -60 13 -39 9 -280 12 -325 4z m330 -500 c39
-12 86 -30 105 -40 19 -10 46 -23 60 -29 29 -13 47 -24 113 -68 26 -18 49 -33
51 -33 5 0 143 -138 174 -175 59 -68 132 -189 191 -316 19 -43 69 -171 75
-194 6 -26 38 -132 43 -145 3 -8 7 -22 8 -30 1 -8 8 -42 15 -75 8 -33 15 -69
16 -80 2 -11 7 -49 13 -85 22 -137 27 -177 38 -310 10 -112 10 -578 0 -705 -7
-94 -10 -126 -22 -235 -2 -25 -7 -72 -11 -105 -3 -33 -10 -77 -14 -97 -5 -24
-4 -38 2 -38 7 0 7 -4 0 -12 -9 -12 -15 -45 -27 -147 -2 -19 -9 -57 -14 -85
-6 -28 -13 -68 -16 -90 -3 -21 -8 -42 -11 -47 -3 -5 -6 -23 -8 -41 -2 -18 -9
-60 -17 -93 -7 -33 -14 -68 -15 -77 -1 -10 -2 -19 -4 -20 -2 -4 -7 -25 -14
-68 -4 -19 -9 -46 -11 -60 -3 -14 -7 -34 -9 -45 -2 -11 -11 -54 -19 -95 -25
-121 -24 -154 8 -225 29 -65 116 -123 195 -131 19 -2 60 3 90 12 60 17 90 45
360 334 208 223 342 354 435 425 37 28 68 53 82 65 7 5 15 10 18 10 6 0 65 40
75 50 3 3 16 11 30 18 14 7 40 21 58 32 17 11 32 16 32 12 0 -4 4 -2 8 4 8 13
123 69 135 66 4 -1 7 3 7 8 0 5 3 9 8 8 4 -1 21 5 37 12 17 7 32 14 35 15 3 1
12 5 20 8 25 11 65 25 73 26 4 0 21 8 37 16 17 9 30 13 30 9 0 -4 6 -2 13 3
13 11 200 59 262 68 23 3 52 8 65 11 33 7 186 7 230 -1 30 -4 82 -15 100 -20
3 -1 19 -5 35 -10 29 -8 109 -44 150 -68 50 -29 153 -130 191 -187 81 -120
160 -310 177 -427 3 -17 7 -35 10 -40 3 -5 8 -36 12 -70 3 -34 8 -72 10 -85 3
-13 7 -67 10 -122 3 -54 8 -103 12 -109 3 -5 2 -8 -3 -5 -5 4 -9 -36 -10 -90
0 -54 -4 -131 -9 -172 -4 -41 -8 -83 -7 -92 0 -10 -2 -18 -6 -18 -4 0 -7 -21
-8 -48 -1 -26 -4 -60 -7 -77 -7 -33 -11 -53 -21 -105 -3 -19 -9 -46 -12 -60
-3 -14 -7 -36 -10 -50 -9 -46 -75 -274 -99 -341 -13 -37 -21 -70 -18 -73 4 -3
1 -6 -5 -6 -7 0 -12 -7 -12 -15 0 -8 -9 -34 -19 -58 -21 -47 -33 -77 -36 -92
-8 -34 -154 -318 -213 -415 -12 -19 -33 -56 -48 -82 -15 -27 -31 -48 -36 -48
-4 0 -8 -4 -8 -9 0 -11 -65 -109 -91 -137 -11 -11 -16 -24 -12 -27 3 -4 2 -7
-4 -7 -5 0 -25 -21 -43 -47 -40 -57 -120 -157 -155 -195 -14 -15 -25 -30 -25
-35 0 -4 -17 -26 -38 -49 -20 -23 -50 -58 -67 -80 -16 -21 -46 -56 -65 -79
-19 -23 -53 -63 -75 -89 -44 -54 -54 -65 -128 -150 -83 -96 -140 -160 -151
-172 -6 -7 -47 -51 -91 -100 -44 -48 -93 -102 -110 -120 -16 -18 -77 -83 -135
-144 -58 -62 -147 -156 -197 -208 -51 -53 -93 -97 -93 -99 0 -11 -674 -689
-853 -858 -64 -60 -151 -143 -193 -183 -42 -39 -78 -72 -81 -72 -2 0 -14 -10
-27 -23 -38 -37 -139 -129 -211 -192 -38 -33 -82 -72 -97 -87 -15 -14 -28 -25
-28 -23 0 2 -11 -6 -24 -18 -54 -51 -207 -184 -244 -212 -7 -5 -25 -21 -41
-35 -15 -14 -43 -37 -61 -52 -19 -15 -49 -38 -67 -52 l-31 -26 -71 68 c-39 37
-71 67 -71 66 0 -2 -124 125 -221 227 -41 43 -102 109 -159 175 -14 16 -48 56
-74 89 -27 32 -54 65 -60 71 -6 6 -20 24 -31 40 -11 15 -26 33 -32 40 -7 7
-13 17 -13 23 0 6 -4 11 -8 11 -4 0 -28 28 -53 62 -24 34 -59 82 -77 107 -18
25 -71 105 -118 176 -48 72 -95 142 -105 157 -11 15 -19 30 -19 33 0 4 -14 26
-30 50 -17 24 -30 46 -30 50 0 3 -11 22 -23 43 -52 81 -165 297 -202 382 -11
25 -22 47 -25 50 -8 6 -118 257 -160 365 -32 81 -99 269 -105 295 -2 8 -4 16
-5 18 -2 1 -3 5 -4 10 -5 20 -40 130 -46 147 -5 11 -20 65 -35 120 -14 55 -32
120 -40 145 -12 42 -27 117 -25 122 1 2 -3 16 -9 31 -6 15 -14 42 -17 60 -3
18 -7 37 -8 42 -2 6 -6 28 -10 50 -4 22 -14 74 -23 115 -8 41 -17 93 -19 115
-3 22 -7 51 -11 65 -3 14 -7 43 -8 65 -2 22 -5 40 -6 40 -2 0 -6 26 -13 100
-4 33 -9 76 -12 95 -4 19 -8 60 -9 90 -2 30 -6 84 -10 120 -17 184 -22 970 -5
970 3 0 6 30 6 68 2 70 11 237 14 237 1 0 3 20 5 45 5 77 16 203 21 245 3 22
7 58 9 80 4 47 13 126 20 175 3 19 7 53 10 75 8 59 13 96 20 136 3 20 7 51 9
70 2 19 6 48 9 64 11 51 18 89 23 123 2 17 18 98 35 180 17 81 32 155 34 164
2 10 20 82 40 160 20 79 39 150 41 158 16 69 36 138 44 155 5 11 12 31 14 45
2 14 10 39 17 55 7 17 13 35 13 40 1 12 24 81 36 110 4 11 20 54 35 95 15 41
43 111 62 155 41 93 56 128 58 135 6 19 65 133 75 145 7 8 9 15 5 15 -3 0 2
15 13 33 11 17 37 64 58 102 79 146 245 405 266 413 4 2 8 10 8 17 0 7 3 15 8
17 4 2 28 28 52 58 53 64 63 75 154 169 38 40 98 98 134 129 36 31 75 66 88
77 12 11 35 29 50 40 15 11 33 26 40 33 7 6 16 12 21 12 4 0 23 14 42 30 18
17 37 30 42 30 4 0 14 6 21 13 21 20 171 107 185 107 7 0 13 4 13 9 0 8 11 12
63 26 4 2 8 3 10 5 4 3 42 12 64 14 13 1 25 5 29 8 14 14 202 -1 269 -22z"/>
</g>
</svg>
